<?xml version="1.0" encoding="utf-8"?>
<!-- Generator: Adobe Illustrator 22.1.0, SVG Export Plug-In . SVG Version: 6.00 Build 0)  -->
<svg version="1.1" id="Capa_1" xmlns="http://www.w3.org/2000/svg" xmlns:xlink="http://www.w3.org/1999/xlink" x="0px" y="0px"
	 viewBox="0 0 512 512" style="enable-background:new 0 0 512 512;" xml:space="preserve">
<style type="text/css">
	.st0{fill:#FFE470;}
	.st1{fill:#FFD400;}
	.st2{fill:#FDBF00;}
	.st3{fill:#FF7816;}
	.st4{fill:#FF4B00;}
	.st5{fill:#FF9F00;}
	.st6{fill:#ECECF1;}
	.st7{fill:#E2E2E7;}
	.st8{fill:#76E2F8;}
	.st9{fill:#5A5A5A;}
	.st10{fill:#25D9F8;}
	.st11{fill:#444444;}
</style>
<path class="st0" d="M177.8,412.9c-3.6,13.4-11.1,26.2-21.9,36.6c-25,23.8-117.5,52.3-127.8,55.3c-4.1,1.2-8.7,0-11.8-3
	c-3.1-3-4.3-7.4-3.1-11.6c3.1-9.7,32.9-98.6,57.6-122.6c10.8-10.4,24-17.6,38-21.1l34.4,33.1L177.8,412.9z"/>
<g>
	<path class="st1" d="M144.2,381.1l33.6,32.8c-3.5,13.2-10.7,25.7-21.3,35.9c-24.3,23.4-114.2,51.4-124.2,54.3c-4,1.1-8.4,0-11.4-3
		L144.2,381.1z"/>
	<path class="st1" d="M142.3,400.4l-32.9,32.3c-2.3,2-5.4,3.2-8.2,3.2c-3,0-6.1-1.1-8.4-3.2v-0.2c-4.4-4.5-4.4-11.6,0-15.9
		l33.2-32.1c4.4-4.5,11.7-4.5,16.1,0h0.2C146.9,388.8,146.9,396.1,142.3,400.4z"/>
</g>
<path class="st2" d="M147.1,385.1c6,5.3,6,14.4,0,19.7l-42.3,40c-3,2.5-6.9,3.9-10.5,3.9c-3.9,0-7.8-1.4-10.8-3.9v-0.3l63.3-59.4
	L147.1,385.1L147.1,385.1z"/>
<path class="st3" d="M174.5,147.5c-106.6,0-140.2,90.1-142.9,93.1c-2.3,4.6-2.1,10.2,0.6,14.6c2.7,4.4,7.6,7.1,12.8,7.1
	c61.6,5.4,100,8.8,96.9,8.6l51-123.4L174.5,147.5L174.5,147.5L174.5,147.5z"/>
<path class="st4" d="M241,369.9c0.2,3.1,7.8,102.2,7.3,95.8c0,11.2,11.8,18.4,21.8,13.4c3-2.7,93.1-37,93.1-142.9v-18.5L241,369.9z"
	/>
<path class="st5" d="M253.2,387c-15.9,8.1-31.8,15.9-46.8,23.4c-5.7,3-12.6,1.8-17.4-2.7l-84.6-84.6c-4.5-4.8-5.7-11.7-2.7-17.4
	c7.5-15,15.3-30.9,23.4-46.8c4.8-9.3,39.6,11.4,44.4,1.8l81.9,81.9C241.8,347.4,262.5,382.2,253.2,387z"/>
<path class="st3" d="M253.2,387c-15.9,8.1-31.8,15.9-46.8,23.4c-5.7,3-12.6,1.8-17.4-2.7l-42.3-42.3l63.9-63.6l40.8,40.8
	C241.8,347.4,262.5,382.2,253.2,387z"/>
<path class="st6" d="M499.5,149c-13.5,51.6-37.8,93.6-75.6,129.9c-44.1,42.6-114.6,79.8-170.7,108l-63.9-63.9L125,258.9
	c28.2-56.1,65.4-126.9,108-170.7C269.4,50.3,311.4,26,363,12.5l30.3,11.1c0.6,26.1,11.1,49.8,28.2,66.9
	c17.1,17.1,40.8,27.6,66.9,28.2L499.5,149z"/>
<path class="st7" d="M499.5,149c-13.5,51.6-37.8,93.6-75.6,129.9c-44.1,42.6-114.6,79.8-170.7,108l-63.9-63.9L421.5,90.5
	c17.1,17.1,40.8,27.6,66.9,28.2L499.5,149z"/>
<path class="st8" d="M380.1,131.9c-29.1-29.1-76.8-29.1-105.9,0c-29.1,29.4-29.1,76.5,0,105.9v0.3c29.1,29.1,76.8,29.1,105.9,0
	C409.5,208.7,409.5,161.3,380.1,131.9z"/>
<path class="st5" d="M499.5,149c-2.4,0-9.3-0.3-11.7-0.3c-34.5-0.6-65.1-14.4-87.6-36.9c-22.5-22.5-36.3-53.1-36.9-87.6
	c0-2.4-0.3-9.3-0.3-11.7c42.6-11.1,90.3-13.8,134.1-12c3.9,0,7.5,1.5,10.2,4.2c2.7,2.7,4.2,6.3,4.2,10.2
	C513.3,58.7,510.3,106.4,499.5,149z"/>
<path class="st9" d="M252.6,280.5c-5.7,6-15.3,6-21,0c-6-5.7-6-15.3,0-21c5.7-6,15.3-6,21,0C258.6,265.2,258.6,274.8,252.6,280.5z"
	/>
<path class="st3" d="M499.5,149c-2.4,0-9.3-0.3-11.7-0.3c-34.5-0.6-65.1-14.4-87.6-36.9L507.3,4.7c2.7,2.7,4.2,6.3,4.2,10.2
	C513.3,58.7,510.3,106.4,499.5,149z"/>
<path class="st10" d="M380.1,238.2c-29.1,29.1-76.8,29.1-105.9,0v-0.3l105.9-105.9C409.5,161.3,409.5,208.7,380.1,238.2z"/>
<path class="st11" d="M252.6,280.5c-5.7,6-15.3,6-21,0l21-21C258.6,265.2,258.6,274.8,252.6,280.5z"/>
</svg>
